<svg xmlns="http://www.w3.org/2000/svg" width="256" height="256"><path fill-opacity=".016" d="M0 128.004v128.004l128.25-.254 128.25-.254.254-127.75L257.008 0H0v128.004m.485.496c0 70.4.119 99.053.265 63.672.146-35.38.146-92.98 0-128C.604 29.153.485 58.1.485 128.5" fill="#1976D2" fill-rule="evenodd"/><path fill-opacity=".079" d="M215.013 72.75c.104 7.013.143 13.08.088 13.482-.056.403-1.715-.834-3.687-2.75-2.013-1.954-4.608-3.482-5.917-3.482-1.281 0-2.517-.562-2.746-1.25-.685-2.06-20.87-2.336-24.871-.34-1.753.874-3.809 1.59-4.569 1.59C170.608 80 163 85.698 163 87.722c0 .703-.45 1.278-1 1.278s-1 .62-1 1.378c0 .757-.675 1.937-1.5 2.622-2.298 1.907-2.111 20.1.25 24.316 2.056 3.67 3.265 5.336 5.065 6.982.724.661 2.572 2.439 4.109 3.952 1.536 1.512 3.326 2.75 3.978 2.75.652 0 2.399 1.125 3.881 2.5 1.483 1.375 3.489 2.5 4.457 2.5s1.76.441 1.76.981c0 .539 1.125 1.263 2.5 1.608 1.375.345 2.5 1.029 2.5 1.519 0 .491.434.892.966.892.531 0 2.233 1.24 3.783 2.755 2.181 2.132 2.885 3.84 3.113 7.553.392 6.373-.87 7.692-7.362 7.692-6.158 0-7.061-.839-7.74-7.192-.748-7.003-2.048-7.808-12.607-7.808-12.134 0-12.153.011-12.153 7.048 0 3.209.45 6.112 1 6.452.55.34 1 1.841 1 3.337 0 3.775 4.923 10.824 6.541 9.365.429-.386.456-.139.06.548-.405.704-2.658 1.25-5.16 1.25H155v-22.878c0-18.743-.261-23.094-1.447-24.078-1.585-1.316-26.697-1.758-29.803-.525-1.46.58-1.75 2.002-1.75 8.588V141h10v17.909l-3.556.667c-4.879.916-10.373-.123-12.451-2.353-.953-1.023-2.072-3.628-2.488-5.791-1.263-6.57-1.727-44.432-.544-44.432.571 0 1.039-1.438 1.039-3.195 0-4.71 4.273-8.805 9.187-8.805 2.097 0 3.813.45 3.813 1s.675 1 1.5 1 1.5.873 1.5 1.941.376 2.174.836 2.458c.46.284.899 2.165.974 4.18.198 5.265 2.216 6.352 11.869 6.389 10.256.04 11.321-.81 11.321-9.039 0-3.286-.446-5.929-1-5.929-.55 0-1-1.02-1-2.266C153 92.299 144.276 82 142.214 82c-.668 0-1.214-.45-1.214-1s-1.088-1-2.417-1c-1.329 0-2.604-.562-2.833-1.25-.303-.91-3.772-1.25-12.75-1.25s-12.447.34-12.75 1.25c-.229.688-1.349 1.25-2.489 1.25C104.368 80 94 88.712 94 91.563c0 .699-.479 1.43-1.065 1.625-.585.195-1.319 2.258-1.631 4.584-.312 2.325-.958 4.228-1.436 4.228-.477 0-.92 10.012-.984 22.25-.064 12.238-.332 21.35-.597 20.25-.265-1.1-.887-2.428-1.384-2.95-.497-.522-.903-2.14-.903-3.594 0-1.831-1.506-4.152-4.9-7.55-5.996-6.003-7.712-7.406-9.058-7.406-.573 0-1.042-.349-1.042-.776 0-.427-2.021-1.664-4.491-2.75-2.469-1.086-4.494-2.259-4.5-2.607-.005-.349-.797-.898-1.759-1.221-3.851-1.293-10.25-6.907-10.25-8.991 0-.69-.54-1.795-1.2-2.455-.933-.933-.933-1.467 0-2.4.66-.66 1.2-2.01 1.2-3 0-.99.675-1.8 1.5-1.8s1.5-.45 1.5-1c0-1.653 5.83-1.126 7.989.722 1.172 1.004 2.024 2.985 2.043 4.75.057 5.465 2.045 6.816 10.996 7.474 7.71.566 10.618.003 12.197-2.361.943-1.411-.269-14.983-1.377-15.418-.466-.184-.848-.951-.848-1.705C84 86.995 75.921 80 73.072 80c-1.048 0-2.088-.548-2.311-1.218-.687-2.059-20.861-2.378-24.84-.393-1.775.886-3.84 1.611-4.588 1.611C38.514 80 30 86.736 30 88.966c0 .569-.389 1.034-.864 1.034s-1.6 1.928-2.5 4.283c-2.197 5.753-2.14 16.56.114 21.433C28.652 119.828 38.947 131 40.835 131c.641 0 1.165.45 1.165 1s.62 1 1.378 1c.757 0 1.937.675 2.622 1.5.685.825 2.09 1.5 3.122 1.5 1.033 0 1.878.367 1.878.816 0 .449 1.77 1.811 3.933 3.026 5.833 3.278 9.067 7.587 9.067 12.08 0 5.083-2.368 7.078-8.4 7.078-6.017 0-7.6-1.562-7.6-7.5 0-2.69-.601-5.244-1.429-6.071-1.926-1.927-19.293-1.956-21.821-.037-1.914 1.453-2.457 8.053-.75 9.108.55.34 1 2.287 1 4.327C25 162.528 29.037 170 31.036 170c.53 0 .964.45.964 1 0 .625-6 1-16 1H0v6.991l107.693.255 107.692.254.058 8 .057 8 3.25.313 3.25.314v-17.08l17.25-.273 17.25-.274.297-3.5.296-3.5-17.546.295-17.547.294V60H214.825l.188 12.75M183.25 97.525c-2.152 2.299-3.287 9.471-1.5 9.478.412.001 1.65 1.35 2.75 2.997 1.1 1.647 2.37 2.996 2.821 2.997.452.002 1.497.678 2.322 1.503.825.825 2.368 1.5 3.428 1.5 1.061 0 1.929.45 1.929 1s.643 1 1.429 1c.785 0 2.031.563 2.768 1.25.737.688 2.906 2.125 4.821 3.194 1.915 1.069 5.134 3.657 7.154 5.75 2.019 2.093 3.819 3.806 4 3.806.246 0 .146-16.553-.135-22.25-.02-.412-3.312-.75-7.314-.75-8.347 0-11.723-1.628-11.723-5.652 0-1.397-.772-3.846-1.716-5.444-2.248-3.805-7.652-3.991-11.034-.379M88.116 153.75C88.052 156.088 87.55 158 87 158c-.55 0-1 1.35-1 3s-.477 3-1.059 3-.823.382-.535.849c.603.974-3.002 5.151-4.445 5.151-.529 0-.961.45-.961 1 0 .603 4.167 1 10.5 1 6.933 0 10.5-.372 10.5-1.094 0-.601-.884-1.324-1.964-1.607-1.08-.282-2.539-1.815-3.244-3.406-.704-1.591-1.585-2.893-1.957-2.893-.867 0-2.281-5.958-1.957-8.25.136-.963-.198-1.75-.742-1.75s-1.195-.787-1.447-1.75c-.251-.963-.509.162-.573 2.5m125.134 15.746c-1.705 1.936-1.573 2.504.583 2.504 2.36 0 3.165-.841 2.491-2.598-.671-1.749-1.473-1.725-3.074.094M.252 175.5c.011 2.2.216 2.982.455 1.738.239-1.244.23-3.044-.02-4s-.446.062-.435 2.262" fill="#1976D2" fill-rule="evenodd"/><path fill-opacity=".182" d="M217 75c0 8.25-.225 15-.5 15s-2.236-1.736-4.357-3.857c-5.137-5.137-11.353-7.146-22.071-7.132-12.402.015-22.019 3.272-25.656 8.688-3.869 5.761-4.616 7.989-5.137 15.32-.98 13.822 3.217 19.765 22.526 31.895 13.995 8.792 16.121 11.05 16.163 17.162.044 6.361-2.744 8.924-9.71 8.924-4.332 0-5.429-.402-7.185-2.635-1.27-1.614-2.073-4.105-2.073-6.428 0-5.768-1.832-6.94-10.821-6.922-4.224.009-8.305.412-9.071.897-1.052.666-1.272 2.553-.9 7.735.52 7.237 3.074 13.552 6.711 16.593 3.568 2.984 2.522 3.876-4.169 3.558l-6.25-.298-.546-24c-.3-13.2-.637-24.125-.75-24.277-.112-.152-6.841-.152-14.954 0l-14.75.277-.574 6c-.752 7.848-.438 8.5 4.099 8.5 6.806 0 6.975.242 6.975 9.985 0 10.667-.57 11.343-9.653 11.443-5.86.065-6.751-.196-8.803-2.583-3.596-4.179-5.544-15.053-5.544-30.939C110 103.377 113.576 94 122.931 94c6.056 0 11.039 6.435 11.063 14.286.005 1.612.957 1.759 9.756 1.5l9.75-.286.319-3.326c.57-5.944-2.789-14.222-7.815-19.257C140.059 80.961 134.326 79 122.859 79c-17.393 0-26.376 6.371-31.021 22-.955 3.212-1.324 11.082-1.29 27.5.058 27.403.986 31.95 8.073 39.526 2.408 2.575 4.379 4.972 4.379 5.328 0 .355-6.075.646-13.5.646s-13.5-.357-13.5-.794c0-.437 1.79-2.714 3.978-5.06 4.776-5.123 6.384-10.263 6.143-19.646-.331-12.915-5.507-19.743-21.621-28.522-9.852-5.367-14.278-8.966-15.846-12.886C45.867 100.128 49.625 94 56.683 94 60.889 94 65 97.991 65 102.075 65 106.8 67.217 108 75.949 108c9.976 0 10.578-.618 9.203-9.453-1.256-8.064-4.89-13.518-11.152-16.735-3.966-2.038-5.925-2.312-16.5-2.312-10.869 0-12.529.248-17.607 2.629C30.739 86.422 27 93.1 27 105.16c0 12.233 5.822 20.069 21.728 29.244 4.455 2.57 10.006 6.363 12.336 8.43 3.776 3.352 4.245 4.259 4.335 8.381.143 6.571-2.972 9.785-9.484 9.785-4.062 0-5.106-.438-7.326-3.077-1.91-2.27-2.589-4.208-2.589-7.393 0-5.245-.565-5.53-10.959-5.53-9.705 0-10.577.785-9.648 8.687.805 6.848 3.431 12.982 6.94 16.208 1.433 1.318 2.368 2.78 2.077 3.25-.29.47-8.151.855-17.469.855C2.571 174 0 174.227 0 175.496c0 1.316 12.951 1.526 108.25 1.75l108.25.254.5 8.99c.414 7.448.793 9.046 2.212 9.316 1.5.286 1.747-.824 2-8.99l.288-9.316 17.488-.5c14.479-.414 17.537-.758 17.776-2 .247-1.288-2.226-1.5-17.488-1.5H221.5l-.258-56.75c-.255-55.918-.288-56.75-2.25-56.75-1.901 0-1.992.687-1.992 15m-34.364 21.636c-1.93 1.931-2.636 3.662-2.636 6.466 0 5.232 4.078 9.663 13.797 14.992 9.498 5.207 17.667 11.158 19.813 14.434.891 1.36 2.018 2.472 2.505 2.472.487 0 .885-6.075.885-13.5V108h-8.3c-9.066 0-10.7-.783-10.7-5.123 0-1.498-1.165-4.108-2.589-5.8-3.461-4.114-8.914-4.302-12.775-.441m29.114 72.231c-2.062 2.127-3.75 4.177-3.75 4.557 0 .38 1.912.553 4.25.383 4.229-.306 4.251-.328 4.557-4.557.17-2.338-.055-4.25-.5-4.249-.444 0-2.494 1.74-4.557 3.866M.079 175.583c.048 1.165.285 1.402.604.605.289-.722.253-1.585-.079-1.917-.332-.332-.568.258-.525 1.312" fill="#1976D2" fill-rule="evenodd"/><path fill-opacity=".286" d="M218.005 75.25c.073 8.388.101 15.813.063 16.5-.13 2.377-2.62 1.238-4.372-2-5.365-9.913-26.913-13.019-42.422-6.115-9.299 4.14-14.171 20.461-9.411 31.532 2.953 6.871 14.738 16.802 25.815 21.755 1.198.536 4.236 2.945 6.75 5.354 3.976 3.81 4.572 4.917 4.572 8.487 0 5.119-1.361 8.825-3.702 10.077-6.2 3.317-14.161 1.094-16.64-4.647-.877-2.031-1.722-5.043-1.877-6.693l-.281-3h-17l.125 7.059c.143 8.024 1.885 12.28 6.392 15.611 1.64 1.214 2.983 2.965 2.983 3.893 0 2.323 3.865 2.937 18.5 2.937 15.058 0 18.5-.586 18.5-3.15 0-1.099 1.039-2.295 2.466-2.837 1.357-.516 3.494-2.524 4.75-4.463 4.075-6.289 4.62-4.888 4.667 11.985.049 17.816 1.375 22.805 2.117 7.965.944-18.886.021-125.5-1.087-125.5-.679 0-.994 5.28-.908 15.25M45.5 81.387c-7.062 2.207-9.06 3.348-12.27 7.004-4.124 4.697-5.588 10.409-4.932 19.243.845 11.366 4.585 15.94 21.202 25.93 10.856 6.526 14.36 9.264 16.059 12.55 4.632 8.957-2.502 17.993-12.46 15.783-4.92-1.091-6.935-3.638-7.833-9.897l-.789-5.5-8.738-.289-8.739-.289v6.424c0 3.534.564 7.714 1.254 9.289 2.02 4.618 4.87 8.365 6.361 8.365.762 0 1.385.45 1.385 1s.9 1.9 2 3c1.815 1.815 3.333 2 16.435 2C69.346 176 74 175.168 74 172.5c0-.852 1.035-1.943 2.301-2.424 1.265-.481 3.569-2.793 5.12-5.136 2.338-3.532 2.905-5.646 3.316-12.351.702-11.472-.734-15.947-7.09-22.089-4.914-4.748-7.195-6.261-17.612-11.678-5.88-3.058-12.698-9.63-13.562-13.072C44.749 98.881 49.353 93 56.455 93c5.578 0 8.064 2.174 9.767 8.541l1.212 4.531 8.533-.286 8.533-.286-.301-4.5c-.606-9.053-4.249-15.056-11.023-18.162-5.681-2.604-21.356-3.426-27.676-1.451m67.234-.299c-8.341 1.965-13.805 6.238-17.769 13.897-5.518 10.657-5.298 54.05.339 67.015 1.61 3.705 5.038 7.293 7.946 8.32.963.339 1.75 1.317 1.75 2.173 0 .856 1.154 1.995 2.565 2.532 2.809 1.068 38.523 1.173 42.247.125l2.312-.651-.006-23.394c-.004-12.866-.406-23.793-.893-24.28-.488-.488-6.701-.761-13.806-.606l-12.919.281-.296 6.193-.296 6.194 4.796.306 4.796.307.283 10.641.282 10.641-3.181 1.109c-4.804 1.674-11.009 1.33-14.509-.804-5.459-3.329-6.375-8.167-6.375-33.682 0-19.686.22-22.752 1.914-26.705 2.443-5.699 5.333-7.7 11.121-7.7 6.169 0 10.133 3.909 10.921 10.77l.544 4.73 8.629.287c10.128.337 10.369.1 8.68-8.533-1.882-9.621-7.69-15.909-17.387-18.828-5.198-1.564-15.783-1.729-21.688-.338m68.953 14.717c-2.139 2.232-2.687 3.766-2.687 7.514 0 6.023 3.458 9.922 14 15.784 12.274 6.825 17.586 10.692 20.535 14.948 1.571 2.266 3.168 3.646 3.655 3.159.476-.476.74-7.58.588-15.788L217.5 106.5l-9.128-.286-9.128-.286-.672-4.203c-.976-6.106-3.846-8.725-9.559-8.725-3.777 0-5.138.521-7.326 2.805" fill="#1976D2" fill-rule="evenodd"/></svg>